<svg xmlns="http://www.w3.org/2000/svg"><symbol id="tea" viewBox="0 0 133.9 148"><path fill="#005a36" stroke="#231f20" stroke-miterlimit="10" stroke-width=".51" d="M52.2 5.6L9.9 34.7C4.7 38.2 1.7 43.5 1.7 49v79.1c0 10.3 10.3 18.7 23 18.7h84.7c12.7 0 22.9-8.4 22.9-18.7V49c0-5.5-3-10.8-8.1-14.3L81.8 5.6c-8.5-5.8-21-5.8-29.6 0z"/></symbol><symbol id="about" viewBox="0 0 131.2 146"><path fill="#005a36" stroke="#231f20" stroke-miterlimit="10" stroke-width=".51" d="M50.8 4.7l-42.4 29C3.3 37.2.3 42.5.3 48v79.1c0 10.3 10.2 18.7 22.9 18.7h84.7c12.7 0 23-8.4 23-18.7V48c0-5.5-3-10.8-8.2-14.3l-42.3-29c-8.6-5.9-21.1-5.9-29.6 0z"/><path fill="none" stroke="#fff" stroke-linecap="round" stroke-linejoin="round" stroke-width="5" d="M31.9 111.5s.1-4.1.1-21.1 23.9-13.3 23.9-13.3l8.8 15.5L75.2 77h10.5c9.3 0 13.4 9.4 13.5 12.5s.1 22 .1 22zm33.7-80.3l2.7.3a17.9 17.9 0 0 1 15 14.1 17.5 17.5 0 0 1-2 12.9c-2.6 4.2-6.1 7.3-11 8.4-6.7 1.6-12.6.2-17.6-4.8a17.2 17.2 0 0 1-5-9.7 18 18 0 0 1 14.5-20.8l3.2-.4z"/></symbol><symbol id="shop" viewBox="0 0 133.9 148"><path fill="#005a36" stroke="#231f20" stroke-miterlimit="10" stroke-width=".51" d="M52.2 5.6L9.9 34.7C4.7 38.2 1.7 43.5 1.7 49v79.1c0 10.3 10.3 18.7 23 18.7h84.7c12.7 0 22.9-8.4 22.9-18.7V49c0-5.5-3-10.8-8.1-14.3L81.8 5.6c-8.5-5.8-21-5.8-29.6 0z"/><path fill="#fff" d="M57 87.1l1.3 4.9a1.6 1.6 0 0 0 .8.5h38.7a5.4 5.4 0 0 1 3.3.8c1.6 1 1.6 2.8 0 3.9a5.5 5.5 0 0 1-3.3.9h-43a1 1 0 0 1-1.2-.9L40.7 48.4a14.2 14.2 0 0 1-.5-2.2.9.9 0 0 0-1-.7l-11.1-.3a3.1 3.1 0 0 1-3.4-3.5c0-1.2 1.5-2.4 3-2.4h13.7a3.3 3.3 0 0 1 2.8 1.2 7.5 7.5 0 0 1 .8 1.8c.9 3.2 1.7 6.4 2.6 9.6.2.7.4 1 1.2 1q27.5-.2 54.9 0a9.2 9.2 0 0 1 3.3.6 3.8 3.8 0 0 1 2 5.1l-9 23.2-1.2 3.2a2.9 2.9 0 0 1-3 2H57zm-7.9-28.5c.1.3.1.7.2 1 2.1 7.3 4.1 14.6 6.2 22 .1.5.4.6.9.6h37.4a.9.9 0 0 0 1.1-.8c2.9-7.3 5.7-14.6 8.5-21.9a3.6 3.6 0 0 1 .4-.9zm14.3 43a7.3 7.3 0 0 1 7.3 7.5 7.4 7.4 0 0 1-7.4 7.3 7.6 7.6 0 0 1-7.4-7.6 7.4 7.4 0 0 1 7.5-7.2zm-.1 10.2a2.8 2.8 0 0 0 2.9-2.8 2.9 2.9 0 1 0-5.7 0 2.8 2.8 0 0 0 2.8 2.8zm27.1-10.2a7.4 7.4 0 0 1 7.3 7.4 7.4 7.4 0 1 1-14.8-.2 7.3 7.3 0 0 1 7.5-7.2zm-.1 10.2a2.8 2.8 0 0 0 2.8-2.9 2.9 2.9 0 0 0-5.7 0 2.9 2.9 0 0 0 2.9 2.9z"/></symbol><symbol id="event" viewBox="0 0 133.9 148"><path fill="#005a36" stroke="#231f20" stroke-miterlimit="10" stroke-width=".51" d="M51.7 7.1l-42.4 29c-5.2 3.6-8.1 8.8-8.1 14.3v79.1c0 10.3 10.2 18.7 22.9 18.7h84.7c12.7 0 23-8.4 23-18.7V50.4c0-5.5-3-10.7-8.2-14.3l-42.3-29c-8.6-5.9-21.1-5.9-29.6 0z"/><rect width="86.2" height="74.66" x="23.4" y="45.6" fill="none" stroke="#fff" stroke-linecap="round" stroke-linejoin="round" stroke-width="3" rx="7.8" ry="7.8"/><path fill="none" stroke="#fff" stroke-linecap="round" stroke-linejoin="round" stroke-width="3" d="M90.8 64.7h12.6v12.65H90.8zm-20.4 0H83v12.65H70.4zm-20.3 0h12.6v12.65H50.1zm-20.4 0h12.6v12.65H29.7zm61.1 18.2h12.6v12.65H90.8zm-20.4 0H83v12.65H70.4zm-20.3 0h12.6v12.65H50.1zm-20.4 0h12.6v12.65H29.7zm61.1 18.3h12.6v12.65H90.8zm-20.4 0H83v12.65H70.4zm-20.3 0h12.6v12.65H50.1zm-20.4 0h12.6v12.65H29.7zm67.5-62.8v14.4M87 38.4v14.4M76.8 38.4v14.4M66.6 38.4v14.4M56.4 38.4v14.4M46.2 38.4v14.4M36 38.4v14.4"/></symbol></svg>