<svg id="Layer_1" data-name="Layer 1" xmlns="http://www.w3.org/2000/svg" width="256" height="256" viewBox="0 0 256 256"><title>logo</title><path d="M208,49.8c0,15.7-20.5,35.1-38.5,35.1V30.4C187.5,30.4,208,27.7,208,49.8Z" fill="none" stroke="#005a36" stroke-miterlimit="10" stroke-width="10"/><path d="M140.9,124.6l32-35.1a11.5,11.5,0,0,0,3.1-7.9V41.5a11.7,11.7,0,0,0-11.8-11.7H91.8A11.7,11.7,0,0,0,80,41.5V81.6a11.5,11.5,0,0,0,3.1,7.9l32,35.1" fill="#fff" stroke="#005a36" stroke-linecap="round" stroke-linejoin="round" stroke-width="10"/><path d="M130.5,115.1l25.6-24.5a3.6,3.6,0,0,0-2.5-6.3H102.4a3.6,3.6,0,0,0-2.5,6.3l25.6,24.5A3.5,3.5,0,0,0,130.5,115.1Z" fill="#b4d336"/><path d="M48,199.5c0-15.8,20.5-35.2,38.5-35.2v54.5C68.5,218.8,48,221.6,48,199.5Z" fill="none" stroke="#005a36" stroke-miterlimit="10" stroke-width="10"/><path d="M115.1,124.6l-32,35.1a11.8,11.8,0,0,0-3.1,8v40a11.8,11.8,0,0,0,11.8,11.8h72.4A11.8,11.8,0,0,0,176,207.7v-40a11.8,11.8,0,0,0-3.1-8l-32-35.1" fill="#fff" stroke="#005a36" stroke-linecap="round" stroke-linejoin="round" stroke-width="10"/><path d="M128,210.4h18.4a6.9,6.9,0,0,0,6.9-7V166.6a6.9,6.9,0,0,0-4.8-6.7l-15.7-5a7,7,0,0,1-4.8-6.6v0a7,7,0,0,1-4.8,6.6l-15.7,5a6.9,6.9,0,0,0-4.8,6.7v36.8a6.9,6.9,0,0,0,6.9,7Z" fill="#b4d336"/><line x1="128" y1="166.6" x2="128" y2="130.3" fill="none" stroke="#b4d336" stroke-linecap="round" stroke-linejoin="round" stroke-width="6.44"/></svg>