<svg xmlns="http://www.w3.org/2000/svg" width="32" height="32" viewBox="0 0 32 32"><path fill="none" stroke="#005a36" stroke-miterlimit="10" stroke-width="1.12" d="M25 7.6c0 1.8-2.3 3.9-4.3 3.9V5.4c2 0 4.3-.3 4.3 2.2z"/><path fill="#fff" stroke="#005a36" stroke-linecap="round" stroke-linejoin="round" stroke-width="1.12" d="M17.4 16l3.7-3.9a1.6 1.6 0 0 0 .3-.9V6.7a1.3 1.3 0 0 0-1.3-1.4h-8.2a1.3 1.3 0 0 0-1.3 1.4v4.5a1.6 1.6 0 0 0 .3.9l3.7 3.9"/><path fill="#b4d336" d="M16.3 14.9l2.9-2.7a.4.4 0 0 0-.3-.7h-5.8a.4.4 0 0 0-.3.7l2.9 2.7a.4.4 0 0 0 .6 0z"/><path fill="none" stroke="#005a36" stroke-miterlimit="10" stroke-width="1.12" d="M7 24.4c0-1.8 2.3-3.9 4.3-3.9v6.1c-2 0-4.3.3-4.3-2.2z"/><path fill="#fff" stroke="#005a36" stroke-linecap="round" stroke-linejoin="round" stroke-width="1.12" d="M14.6 16l-3.7 3.9a1.6 1.6 0 0 0-.3.9v4.5a1.3 1.3 0 0 0 1.3 1.4h8.2a1.3 1.3 0 0 0 1.3-1.4v-4.5a1.6 1.6 0 0 0-.3-.9L17.4 16"/><path fill="#b4d336" d="M16 25.6h2.1a.7.7 0 0 0 .7-.7v-4.2a.8.8 0 0 0-.5-.7l-1.8-.6a.8.8 0 0 1-.5-.7.8.8 0 0 1-.5.7l-1.8.6a.8.8 0 0 0-.5.7v4.2a.7.7 0 0 0 .7.7z"/><path fill="none" stroke="#b4d336" stroke-linecap="round" stroke-linejoin="round" stroke-width=".72" d="M16 20.7v-4.1"/></svg>