<svg xmlns="http://www.w3.org/2000/svg" width="64" height="40.4" viewBox="0 0 64 40.4"><path fill="none" stroke="#005a36" stroke-miterlimit="10" stroke-width=".96" d="M30.9 7c0 2.3-3.1 5.2-5.7 5.2V4.1c2.6 0 5.7-.4 5.7 2.9z"/><path fill="#fff" stroke="#005a36" stroke-linecap="round" stroke-linejoin="round" stroke-width=".96" d="M20.9 18.1l4.8-5.2a1.6 1.6 0 0 0 .4-1.2V5.8A1.8 1.8 0 0 0 24.4 4H13.6a1.8 1.8 0 0 0-1.8 1.8v5.9a1.7 1.7 0 0 0 .5 1.2l4.8 5.2"/><path fill="#b4d336" d="M19.4 16.7l3.8-3.6a.6.6 0 0 0-.4-1h-7.6a.6.6 0 0 0-.4 1l3.8 3.6a.6.6 0 0 0 .8 0z"/><path fill="none" stroke="#005a36" stroke-miterlimit="10" stroke-width=".96" d="M7.1 29.3c0-2.4 3-5.3 5.7-5.3v8.2c-2.7 0-5.7.4-5.7-2.9z"/><path fill="#fff" stroke="#005a36" stroke-linecap="round" stroke-linejoin="round" stroke-width=".96" d="M17.1 18.1l-4.8 5.3a1.6 1.6 0 0 0-.5 1.1v6a1.8 1.8 0 0 0 1.8 1.8h10.8a1.8 1.8 0 0 0 1.7-1.8v-6a1.5 1.5 0 0 0-.4-1.1l-4.8-5.3"/><path fill="#b4d336" d="M19 30.9h2.7a1.1 1.1 0 0 0 1.1-1v-5.5a1 1 0 0 0-.8-1l-2.3-.8a1 1 0 0 1-.7-.9 1 1 0 0 1-.7.9l-2.4.8a1 1 0 0 0-.7 1v5.5a1.1 1.1 0 0 0 1 1z"/><path fill="none" stroke="#b4d336" stroke-linecap="round" stroke-linejoin="round" stroke-width=".96" d="M19 24.4V19"/><path fill="#231f20" d="M39.4 16.8h-1.9v-11h-2.1V4h6.1v1.8h-2.1zm3.9-4.5V14c0 .9.3 1.3.9 1.3a.8.8 0 0 0 .7-.4c.1-.2.1-.3.1-1.1v-.3h1.8v.4a2.7 2.7 0 0 1-.5 2 2.5 2.5 0 0 1-2.1 1 2.5 2.5 0 0 1-2-1 3.5 3.5 0 0 1-.6-2.3v-3.3a4 4 0 0 1 .5-2.2 2.8 2.8 0 0 1 2.1-1 2.5 2.5 0 0 1 2 1 3.2 3.2 0 0 1 .6 2.2v2zM45 10c0-.9-.2-1.3-.8-1.3s-.9.4-.9 1.3v.9H45zm6.7 6.8a4.1 4.1 0 0 0-.1-1.1 2.7 2.7 0 0 1-2 1.2c-.9 0-1.5-.9-1.5-2.3s.7-2.4 3.5-4V10c0-1.1-.2-1.3-.8-1.3s-.7.3-.8 1.3h-1.7c.1-1.9 1.1-2.9 2.7-2.9a2.2 2.2 0 0 1 1.8.8c.4.5.5 1 .5 2.3v3.1a14.4 14.4 0 0 0 .2 3.5zm-.1-4.9c-1.3.8-1.8 1.4-1.8 2.4s.3 1 .6 1 .8-.3 1.2-.9zM39.4 32.2h-1.9v-11h-2.1v-1.7h6.1v1.7h-2.1zm5-11h-1.8v-1.7h1.8zm0 11h-1.8v-9.5h1.8zm3.2-8.4c.8-.9 1.2-1.2 1.9-1.2s1.1.4 1.3 1.2c.8-.9 1.3-1.2 2-1.2a1 1 0 0 1 .9.4c.3.4.4.7.4 1.8v7.4h-1.8v-7.7c-.1-.2-.2-.3-.4-.3s-.7.2-1.1.8v7.2h-1.7v-7c0-.5 0-.6-.1-.7s-.2-.3-.4-.3-.6.2-1 .8v7.2h-1.8v-9.5h1.8zm9.6 4v1.7c0 .9.2 1.3.8 1.3a.7.7 0 0 0 .7-.4c.1-.2.1-.3.1-1.1a.5.5 0 0 1 .1-.3h1.7v.4a3 3 0 0 1-.4 1.9 2.6 2.6 0 0 1-2.1 1.1 2.7 2.7 0 0 1-2.1-1 3.5 3.5 0 0 1-.6-2.3v-3.3a3.2 3.2 0 0 1 .6-2.2 2.5 2.5 0 0 1 2-1 2.7 2.7 0 0 1 2.1 1 3.3 3.3 0 0 1 .5 2.2v2zm1.7-2.3c0-.9-.3-1.3-.9-1.3s-.8.4-.8 1.3v.9h1.7z"/></svg>