<svg xmlns="http://www.w3.org/2000/svg" width="16" height="16" viewBox="0 0 16 16"><path fill="none" stroke="#005a36" stroke-miterlimit="10" stroke-width=".64" d="M13.1 3.2a2.8 2.8 0 0 1-2.5 2.3V2c1.2 0 2.5-.2 2.5 1.2z"/><path fill="#fff" stroke="#005a36" stroke-linecap="round" stroke-linejoin="round" stroke-width=".64" d="M8.8 8l2.1-2.2a.9.9 0 0 0 .1-.5V2.7a.7.7 0 0 0-.7-.7H5.7a.7.7 0 0 0-.7.7v2.6a.9.9 0 0 0 .1.5L7.2 8"/><path fill="#b4d336" d="M8.2 7.4l1.6-1.6a.3.3 0 0 0-.2-.4H6.4a.3.3 0 0 0-.2.4l1.6 1.6z"/><path fill="none" stroke="#005a36" stroke-miterlimit="10" stroke-width=".64" d="M2.9 12.8a2.8 2.8 0 0 1 2.5-2.3V14c-1.2 0-2.5.2-2.5-1.2z"/><path fill="#fff" stroke="#005a36" stroke-linecap="round" stroke-linejoin="round" stroke-width=".64" d="M7.2 8l-2.1 2.2a.9.9 0 0 0-.1.5v2.6a.7.7 0 0 0 .7.7h4.6a.7.7 0 0 0 .7-.7v-2.6a.9.9 0 0 0-.1-.5L8.8 8"/><path fill="#b4d336" d="M8 13.4h1.2a.4.4 0 0 0 .4-.4v-2.3a.5.5 0 0 0-.3-.5l-1-.3c-.2 0-.3-.2-.3-.4 0 .2-.1.4-.3.4l-1 .3a.5.5 0 0 0-.3.5V13a.4.4 0 0 0 .4.4z"/><path fill="none" stroke="#b4d336" stroke-linecap="round" stroke-linejoin="round" stroke-width=".41" d="M8 10.7V8.4"/></svg>