<svg xmlns="http://www.w3.org/2000/svg" width="64" height="64" viewBox="0 0 64 64"><path fill="none" stroke="#005a36" stroke-miterlimit="10" stroke-width="1.99" d="M47.9 17.1c0 3.1-4.1 7-7.6 7V13.2c3.5 0 7.6-.5 7.6 3.9z"/><path fill="#fff" stroke="#005a36" stroke-linecap="round" stroke-linejoin="round" stroke-width="1.99" d="M34.6 32l6.3-7a2.4 2.4 0 0 0 .7-1.6v-7.9a2.4 2.4 0 0 0-2.4-2.4H24.8a2.4 2.4 0 0 0-2.4 2.4v7.9a2.4 2.4 0 0 0 .7 1.6l6.3 7"/><path fill="#b4d336" d="M32.5 30.1l5.1-4.9a.7.7 0 0 0-.5-1.2H26.9a.7.7 0 0 0-.5 1.2l5.1 4.9a.7.7 0 0 0 1 0z"/><path fill="none" stroke="#005a36" stroke-miterlimit="10" stroke-width="1.99" d="M16.1 46.9c0-3.1 4.1-7 7.6-7v10.9c-3.5 0-7.6.5-7.6-3.9z"/><path fill="#fff" stroke="#005a36" stroke-linecap="round" stroke-linejoin="round" stroke-width="1.99" d="M29.4 32l-6.3 7a2.4 2.4 0 0 0-.7 1.6v7.9a2.4 2.4 0 0 0 2.4 2.4h14.4a2.4 2.4 0 0 0 2.4-2.4v-7.9a2.4 2.4 0 0 0-.7-1.6l-6.3-7"/><path fill="#b4d336" d="M32 49.1h3.7a1.3 1.3 0 0 0 1.3-1.4v-7.4a1.3 1.3 0 0 0-.9-1.3L33 38a1.3 1.3 0 0 1-1-1.3 1.3 1.3 0 0 1-1 1.3l-3.1 1a1.3 1.3 0 0 0-.9 1.3v7.4a1.3 1.3 0 0 0 1.3 1.4z"/><path fill="none" stroke="#b4d336" stroke-linecap="round" stroke-linejoin="round" stroke-width="1.28" d="M32 40.3v-7.2"/></svg>