<svg xmlns="http://www.w3.org/2000/svg"><symbol id="logo-16" viewBox="0 0 16 16"><path fill="none" stroke="#005a36" stroke-miterlimit="10" stroke-width=".64" d="M13.1 3.2a2.8 2.8 0 0 1-2.5 2.3V2c1.2 0 2.5-.2 2.5 1.2z"/><path fill="#fff" stroke="#005a36" stroke-linecap="round" stroke-linejoin="round" stroke-width=".64" d="M8.8 8l2.1-2.2a.9.9 0 0 0 .1-.5V2.7a.7.7 0 0 0-.7-.7H5.7a.7.7 0 0 0-.7.7v2.6a.9.9 0 0 0 .1.5L7.2 8"/><path fill="#b4d336" d="M8.2 7.4l1.6-1.6a.3.3 0 0 0-.2-.4H6.4a.3.3 0 0 0-.2.4l1.6 1.6z"/><path fill="none" stroke="#005a36" stroke-miterlimit="10" stroke-width=".64" d="M2.9 12.8a2.8 2.8 0 0 1 2.5-2.3V14c-1.2 0-2.5.2-2.5-1.2z"/><path fill="#fff" stroke="#005a36" stroke-linecap="round" stroke-linejoin="round" stroke-width=".64" d="M7.2 8l-2.1 2.2a.9.9 0 0 0-.1.5v2.6a.7.7 0 0 0 .7.7h4.6a.7.7 0 0 0 .7-.7v-2.6a.9.9 0 0 0-.1-.5L8.8 8"/><path fill="#b4d336" d="M8 13.4h1.2a.4.4 0 0 0 .4-.4v-2.3a.5.5 0 0 0-.3-.5l-1-.3c-.2 0-.3-.2-.3-.4 0 .2-.1.4-.3.4l-1 .3a.5.5 0 0 0-.3.5V13a.4.4 0 0 0 .4.4z"/><path fill="none" stroke="#b4d336" stroke-linecap="round" stroke-linejoin="round" stroke-width=".41" d="M8 10.7V8.4"/></symbol><symbol id="logo-32" viewBox="0 0 32 32"><path fill="none" stroke="#005a36" stroke-miterlimit="10" stroke-width="1.12" d="M25 7.6c0 1.8-2.3 3.9-4.3 3.9V5.4c2 0 4.3-.3 4.3 2.2z"/><path fill="#fff" stroke="#005a36" stroke-linecap="round" stroke-linejoin="round" stroke-width="1.12" d="M17.4 16l3.7-3.9a1.6 1.6 0 0 0 .3-.9V6.7a1.3 1.3 0 0 0-1.3-1.4h-8.2a1.3 1.3 0 0 0-1.3 1.4v4.5a1.6 1.6 0 0 0 .3.9l3.7 3.9"/><path fill="#b4d336" d="M16.3 14.9l2.9-2.7a.4.4 0 0 0-.3-.7h-5.8a.4.4 0 0 0-.3.7l2.9 2.7a.4.4 0 0 0 .6 0z"/><path fill="none" stroke="#005a36" stroke-miterlimit="10" stroke-width="1.12" d="M7 24.4c0-1.8 2.3-3.9 4.3-3.9v6.1c-2 0-4.3.3-4.3-2.2z"/><path fill="#fff" stroke="#005a36" stroke-linecap="round" stroke-linejoin="round" stroke-width="1.12" d="M14.6 16l-3.7 3.9a1.6 1.6 0 0 0-.3.9v4.5a1.3 1.3 0 0 0 1.3 1.4h8.2a1.3 1.3 0 0 0 1.3-1.4v-4.5a1.6 1.6 0 0 0-.3-.9L17.4 16"/><path fill="#b4d336" d="M16 25.6h2.1a.7.7 0 0 0 .7-.7v-4.2a.8.8 0 0 0-.5-.7l-1.8-.6a.8.8 0 0 1-.5-.7.8.8 0 0 1-.5.7l-1.8.6a.8.8 0 0 0-.5.7v4.2a.7.7 0 0 0 .7.7z"/><path fill="none" stroke="#b4d336" stroke-linecap="round" stroke-linejoin="round" stroke-width=".72" d="M16 20.7v-4.1"/></symbol><symbol id="logo-64" viewBox="0 0 64 64"><path fill="none" stroke="#005a36" stroke-miterlimit="10" stroke-width="1.99" d="M47.9 17.1c0 3.1-4.1 7-7.6 7V13.2c3.5 0 7.6-.5 7.6 3.9z"/><path fill="#fff" stroke="#005a36" stroke-linecap="round" stroke-linejoin="round" stroke-width="1.99" d="M34.6 32l6.3-7a2.4 2.4 0 0 0 .7-1.6v-7.9a2.4 2.4 0 0 0-2.4-2.4H24.8a2.4 2.4 0 0 0-2.4 2.4v7.9a2.4 2.4 0 0 0 .7 1.6l6.3 7"/><path fill="#b4d336" d="M32.5 30.1l5.1-4.9a.7.7 0 0 0-.5-1.2H26.9a.7.7 0 0 0-.5 1.2l5.1 4.9a.7.7 0 0 0 1 0z"/><path fill="none" stroke="#005a36" stroke-miterlimit="10" stroke-width="1.99" d="M16.1 46.9c0-3.1 4.1-7 7.6-7v10.9c-3.5 0-7.6.5-7.6-3.9z"/><path fill="#fff" stroke="#005a36" stroke-linecap="round" stroke-linejoin="round" stroke-width="1.99" d="M29.4 32l-6.3 7a2.4 2.4 0 0 0-.7 1.6v7.9a2.4 2.4 0 0 0 2.4 2.4h14.4a2.4 2.4 0 0 0 2.4-2.4v-7.9a2.4 2.4 0 0 0-.7-1.6l-6.3-7"/><path fill="#b4d336" d="M32 49.1h3.7a1.3 1.3 0 0 0 1.3-1.4v-7.4a1.3 1.3 0 0 0-.9-1.3L33 38a1.3 1.3 0 0 1-1-1.3 1.3 1.3 0 0 1-1 1.3l-3.1 1a1.3 1.3 0 0 0-.9 1.3v7.4a1.3 1.3 0 0 0 1.3 1.4z"/><path fill="none" stroke="#b4d336" stroke-linecap="round" stroke-linejoin="round" stroke-width="1.28" d="M32 40.3v-7.2"/></symbol><symbol id="logo-256" viewBox="0 0 256 256"><path fill="none" stroke="#005a36" stroke-miterlimit="10" stroke-width="10" d="M208 49.8c0 15.7-20.5 35.1-38.5 35.1V30.4c18 0 38.5-2.7 38.5 19.4z"/><path fill="#fff" stroke="#005a36" stroke-linecap="round" stroke-linejoin="round" stroke-width="10" d="M140.9 124.6l32-35.1a11.5 11.5 0 0 0 3.1-7.9V41.5a11.7 11.7 0 0 0-11.8-11.7H91.8A11.7 11.7 0 0 0 80 41.5v40.1a11.5 11.5 0 0 0 3.1 7.9l32 35.1"/><path fill="#b4d336" d="M130.5 115.1l25.6-24.5a3.6 3.6 0 0 0-2.5-6.3h-51.2a3.6 3.6 0 0 0-2.5 6.3l25.6 24.5a3.5 3.5 0 0 0 5 0z"/><path fill="none" stroke="#005a36" stroke-miterlimit="10" stroke-width="10" d="M48 199.5c0-15.8 20.5-35.2 38.5-35.2v54.5c-18 0-38.5 2.8-38.5-19.3z"/><path fill="#fff" stroke="#005a36" stroke-linecap="round" stroke-linejoin="round" stroke-width="10" d="M115.1 124.6l-32 35.1a11.8 11.8 0 0 0-3.1 8v40a11.8 11.8 0 0 0 11.8 11.8h72.4a11.8 11.8 0 0 0 11.8-11.8v-40a11.8 11.8 0 0 0-3.1-8l-32-35.1"/><path fill="#b4d336" d="M128 210.4h18.4a6.9 6.9 0 0 0 6.9-7v-36.8a6.9 6.9 0 0 0-4.8-6.7l-15.7-5a7 7 0 0 1-4.8-6.6 7 7 0 0 1-4.8 6.6l-15.7 5a6.9 6.9 0 0 0-4.8 6.7v36.8a6.9 6.9 0 0 0 6.9 7z"/><path fill="none" stroke="#b4d336" stroke-linecap="round" stroke-linejoin="round" stroke-width="6.44" d="M128 166.6v-36.3"/></symbol></svg>