<svg xmlns="http://www.w3.org/2000/svg" width="256" height="256" viewBox="0 0 256 256"><path fill="none" stroke="#005a36" stroke-miterlimit="10" stroke-width="10" d="M208 49.8c0 15.7-20.5 35.1-38.5 35.1V30.4c18 0 38.5-2.7 38.5 19.4z"/><path fill="#fff" stroke="#005a36" stroke-linecap="round" stroke-linejoin="round" stroke-width="10" d="M140.9 124.6l32-35.1a11.5 11.5 0 0 0 3.1-7.9V41.5a11.7 11.7 0 0 0-11.8-11.7H91.8A11.7 11.7 0 0 0 80 41.5v40.1a11.5 11.5 0 0 0 3.1 7.9l32 35.1"/><path fill="#b4d336" d="M130.5 115.1l25.6-24.5a3.6 3.6 0 0 0-2.5-6.3h-51.2a3.6 3.6 0 0 0-2.5 6.3l25.6 24.5a3.5 3.5 0 0 0 5 0z"/><path fill="none" stroke="#005a36" stroke-miterlimit="10" stroke-width="10" d="M48 199.5c0-15.8 20.5-35.2 38.5-35.2v54.5c-18 0-38.5 2.8-38.5-19.3z"/><path fill="#fff" stroke="#005a36" stroke-linecap="round" stroke-linejoin="round" stroke-width="10" d="M115.1 124.6l-32 35.1a11.8 11.8 0 0 0-3.1 8v40a11.8 11.8 0 0 0 11.8 11.8h72.4a11.8 11.8 0 0 0 11.8-11.8v-40a11.8 11.8 0 0 0-3.1-8l-32-35.1"/><path fill="#b4d336" d="M128 210.4h18.4a6.9 6.9 0 0 0 6.9-7v-36.8a6.9 6.9 0 0 0-4.8-6.7l-15.7-5a7 7 0 0 1-4.8-6.6 7 7 0 0 1-4.8 6.6l-15.7 5a6.9 6.9 0 0 0-4.8 6.7v36.8a6.9 6.9 0 0 0 6.9 7z"/><path fill="none" stroke="#b4d336" stroke-linecap="round" stroke-linejoin="round" stroke-width="6.44" d="M128 166.6v-36.3"/></svg>